<?xml version="1.0" encoding="utf-8" ?>
<svg xmlns="http://www.w3.org/2000/svg" xmlns:xlink="http://www.w3.org/1999/xlink" width="2218" height="2218">
	<path fill="#0AF756" transform="scale(4.33284 4.33284)" d="M154.011 166.27C162.335 164.976 158.671 177.703 154.011 179.666C145.044 180.19 149.206 168.886 154.011 166.27Z"/>
	<path fill="#0AF756" transform="scale(4.33284 4.33284)" d="M279.352 379.27C286.255 378.117 286.761 392.202 281.538 395.149C275.41 396.353 272.496 383.014 279.352 379.27Z"/>
	<path fill="#0AEFFA" transform="scale(4.33284 4.33284)" d="M425.875 202.243C429.638 202.22 439.847 201.323 442.585 203.597C446.264 206.653 442.887 210.279 437.967 210.252C435.085 210.266 413.344 212.208 420.708 203.557C421.854 202.211 424.271 202.358 425.875 202.243Z"/>
	<path fill="#0AEFFA" transform="scale(4.33284 4.33284)" d="M332.455 68.9847C333.997 68.9943 335.552 69.2312 336.469 70.6503C337.166 71.7277 339.892 91.0936 334.378 93.8437C326.164 95.147 329.493 77.0394 329.5 71.2256C330.286 70.2129 331.334 69.5669 332.455 68.9847Z"/>
	<path fill="#0AF756" transform="scale(4.33284 4.33284)" d="M399.985 246.249C402.556 246.524 414.791 258.549 415.757 260.92C416.781 263.433 414.383 265.326 412.32 266.147C411.209 266.077 386.746 250.482 399.985 246.249Z"/>
	<path fill="#0AF756" transform="scale(4.33284 4.33284)" d="M241.771 202.243C243.542 202.136 245.258 202.148 247.03 202.243C248.937 203.708 250.769 206.495 248.659 208.657C246.295 211.08 236.192 210.263 232.545 210.252C229.925 210.144 219.637 208.811 224.575 203.835C227.151 201.24 237.848 202.214 241.771 202.243Z"/>
	<path fill="#0AEFFA" transform="scale(4.33284 4.33284)" d="M256.048 97.5047C258.089 97.4614 281.481 113.56 270.144 118.114C269.513 118.125 245.144 103.278 256.048 97.5047Z"/>
	<path fill="#0AEFFA" transform="scale(4.33284 4.33284)" d="M233.66 151.12C236.022 151.107 256.221 149.914 248.365 157.808C246.46 159.722 242.367 159.214 239.875 159.23C237.38 159.239 217.407 160.525 225.294 152.3C226.962 150.561 231.427 151.106 233.66 151.12Z"/>
	<path fill="#0AEFFA" transform="scale(4.33284 4.33284)" d="M410.277 97.5047C412.779 97.0055 415.951 97.699 415.661 100.994C415.45 103.386 403.104 115.603 399.985 118.114C385.698 115.768 406.708 99.2326 410.277 97.5047Z"/>
	<path fill="#0AEFFA" transform="scale(4.33284 4.33284)" d="M422.029 150.258L433.872 150.21C437.251 150.194 445.646 149.18 444.024 155.151C443.579 156.788 442.498 157.685 441.081 158.499C436.301 158.808 427.785 158.919 423.038 158.464C418.043 157.985 417.129 151.662 422.029 150.258Z"/>
	<path fill="#0AF756" transform="scale(4.33284 4.33284)" d="M269.367 244.207C283.155 246.191 259.124 265.07 256.934 266.147C243.192 264.834 266.549 245.683 269.367 244.207Z"/>
	<path fill="#0AF756" transform="scale(4.33284 4.33284)" d="M279.352 414.761C281.79 414.673 284.072 415.668 284.423 418.254C285.123 423.416 286.708 438.414 281.538 441.4C279.633 441.358 277.76 440.952 276.819 439.07C275.287 436.006 273.485 417.663 279.352 414.761Z"/>
	<path fill="#0AF756" transform="scale(4.33284 4.33284)" d="M241.771 269.252C248.995 268.864 247.045 278.456 247.048 283.183L247.047 300.136C247.044 305.804 249.171 317.872 244.303 320.996C240.062 321.489 239.279 319.08 239.086 315.519C238.817 310.543 238.601 274.091 239.281 271.582C239.607 270.378 240.778 269.818 241.771 269.252Z"/>
	<path fill="#0AF756" transform="scale(4.33284 4.33284)" d="M215.346 269.252C219.118 268.427 220.095 270.798 220.232 273.9C220.442 278.705 220.656 316.71 220.036 318.476C219.56 319.832 218.125 320.454 216.92 320.996C215.239 321.062 213.063 320.319 212.501 318.552C211.579 315.648 211.816 278.404 212.123 273.048C212.267 270.536 212.984 270.012 215.346 269.252Z"/>
	<path fill="#0AEFFA" transform="scale(4.33284 4.33284)" d="M215.346 116.072C218.334 115.672 220.783 118.551 219.567 121.474C218.161 124.855 209.639 125.79 206.422 127.102C197.264 130.84 187.911 136.475 180.897 143.508C178.286 146.127 173.988 152.859 170.747 154.075C159.422 153.709 170.446 142.735 173.067 140.028C184.647 128.063 199.068 119.746 215.346 116.072Z"/>
	<path fill="#0AEFFA" transform="scale(4.33284 4.33284)" d="M312.762 111.785C331.337 108.303 358.522 109.706 374.137 120.364C395.071 134.653 399.999 154.223 399.991 177.539L399.993 197.828C400.004 201.394 400.473 209.144 399.985 212.327C397.438 197.058 402.262 197.415 392.043 183.283L392.07 196.383C392.102 199.147 392.393 202.063 392.043 204.798C391.8 191.949 393.021 176.243 391.599 163.769C389.165 142.422 372.296 122.152 350.439 119.179C345.452 118.501 340.423 118.611 335.404 118.617L317.795 118.623C316.282 117.907 314.332 119.571 312.672 119.374C313.086 117.941 316.677 118.079 315.307 116.116C311.67 110.903 307.179 114.656 313.619 112.08L312.762 111.785Z"/>
	<path fill="#0AEFFA" transform="scale(4.33284 4.33284)" d="M184.532 85.0811C208.199 70.9412 250.931 70.3513 276.456 76.8002C277.887 77.1616 315.46 87.5886 301.753 93.3598C298.915 94.5547 289.027 88.9874 285.917 87.8664C245.532 73.3108 193.804 80.3136 160.967 109.218L160.828 108.862C159.465 108.915 155.475 113.109 153.95 114.014C154.16 111.692 156.181 108.485 154.312 106.336C153.853 106.331 153.304 106.389 152.939 106.086L161.617 99.1215C168.86 93.3894 180.057 89.2241 184.772 85.3991L184.532 85.0811Z"/>
	<defs>
		<linearGradient id="gradient_0" gradientUnits="userSpaceOnUse" x1="293.41458" y1="371.491" x2="355.12799" y2="358.10818">
			<stop offset="0" stop-color="#0CFE73"/>
			<stop offset="1" stop-color="#20FFB7"/>
		</linearGradient>
	</defs>
	<path fill="url(#gradient_0)" transform="scale(4.33284 4.33284)" d="M335.694 287.54C343.96 286.237 340.709 297.241 339.871 301.85C336.41 320.885 327.465 334.924 315.482 349.357L315.477 418.027C315.479 424.662 318.148 439.334 312.762 442.476C305.388 442.858 307.505 433.195 307.504 428.391L307.519 346.15C309.466 342.77 314.214 338.637 316.926 334.896C324.131 324.953 329.187 313.788 331.658 301.752C332.489 297.704 331.932 290.053 335.694 287.54Z"/>
	<path fill="#0AF756" transform="scale(4.33284 4.33284)" d="M172.914 268.103C183.019 267.453 191.658 275.115 192.604 285.152C193.179 291.242 193.312 310.191 192.675 316.364C192.102 321.923 187.845 322.006 184.532 318.615C184.057 314.016 184.518 308.014 184.532 303.233L175.299 303.233L163.006 303.233C162.994 305.553 165.026 327.063 156.687 320.309C153.545 317.764 155.065 307.151 155.057 303.554C155.023 288.414 152.35 269.637 172.914 268.103ZM172.914 276.089C162.566 277.398 162.53 286.693 163.006 295.161L175.299 295.161L184.532 295.161C184.701 287.495 184.685 274.14 172.914 276.089Z"/>
	<path fill="#0AF756" transform="scale(4.33284 4.33284)" d="M179.552 202.243C183.618 201.457 188.383 203.513 191.506 206.003C201.243 213.769 198.869 226.466 198.883 237.396C198.889 241.802 199.345 246.544 198.869 250.903C198.529 254.016 194.898 256.268 192.393 253.623C190.015 251.112 190.96 241.264 190.985 237.784L181.013 237.784L168.955 237.784C168.969 239.856 170.534 261.302 162.188 253.777C159.754 251.582 160.989 237.115 160.97 233.753C160.891 219.787 160.295 202.222 179.552 202.243ZM178.166 210.252C167.938 212.239 168.877 221.116 168.955 229.496L182.528 229.496L190.985 229.496C191.046 220.915 190.909 207.675 178.166 210.252Z"/>
	<defs>
		<linearGradient id="gradient_1" gradientUnits="userSpaceOnUse" x1="118.7681" y1="109.684" x2="152.79654" y2="443.94302">
			<stop offset="0" stop-color="#14FFD5"/>
			<stop offset="1" stop-color="#28FF55"/>
		</linearGradient>
	</defs>
	<path fill="url(#gradient_1)" transform="scale(4.33284 4.33284)" d="M184.532 85.0811L184.772 85.3991C180.057 89.2241 168.86 93.3894 161.617 99.1215L152.939 106.086C153.304 106.389 153.853 106.331 154.312 106.336C156.181 108.485 154.16 111.692 153.95 114.014C155.475 113.109 159.465 108.915 160.828 108.862L160.967 109.218C133.628 129.524 115.976 165.148 112.538 198.501C111.515 208.42 113.613 222.985 111.538 230.35C110.399 234.391 99.3435 251.928 96.5737 256.799L86.0135 275.657C82.3552 282.104 75.4144 290.196 77.1425 298.077C81.3892 317.444 110.407 301.759 112.123 312.704C112.588 315.667 112.266 319.069 112.26 322.082L112.224 342.833C112.218 347.231 111.851 352.018 112.672 356.347C116.353 375.764 134.982 372.891 149.019 372.886L169.854 372.88C181.494 372.874 191.569 372.856 202.208 367.727C204.951 366.404 210.66 361.626 213.677 364.573C218.183 368.976 209.767 373.046 206.975 374.415C195.72 379.934 187.044 381.398 174.557 381.163C175.237 383.424 176.565 385.364 177.679 387.424C184.326 399.713 182.529 413.636 182.544 427.118C182.548 430.631 184.572 442.41 178.411 441.979C166.701 441.161 186.115 407.01 163.634 381.163L144.75 381.172C132.521 381.176 121.971 381.863 112.657 372.542C102.722 362.599 104.02 351.911 104.018 339.067L104.015 316.47C97.9022 316.489 88.4699 317.32 82.7446 315.221C73.2162 311.727 65.9497 300.406 68.8257 290.253C70.9859 282.627 87.4153 256.162 91.8347 248.59L98.04 237.758C106.325 223.432 102.542 226.891 103.363 210.067C105.92 157.627 135.407 106.768 184.532 85.0811Z"/>
	<defs>
		<linearGradient id="gradient_2" gradientUnits="userSpaceOnUse" x1="367.95312" y1="147.6996" x2="286.7814" y2="279.53894">
			<stop offset="0" stop-color="#17FFFD"/>
			<stop offset="1" stop-color="#24FFA3"/>
		</linearGradient>
	</defs>
	<path fill="url(#gradient_2)" transform="scale(4.33284 4.33284)" d="M312.762 111.785L313.619 112.08C307.179 114.656 311.67 110.903 315.307 116.116C316.677 118.079 313.086 117.941 312.672 119.374C314.332 119.571 316.282 117.907 317.795 118.623C294.445 125.216 276.928 142.59 275.799 168.015C275.518 174.33 275.088 208.857 276.236 212.74C279.434 223.564 292.582 216.377 299.861 219.21C307.163 222.052 297.534 237.161 305.988 241.906C308.945 243.565 313.866 242.724 317.125 242.713L350.824 242.706C375.239 242.752 361.1 233.19 365.687 221.215C368.901 212.821 392.635 230.006 392.043 204.798C392.393 202.063 392.102 199.147 392.07 196.383L392.043 183.283C402.262 197.415 397.438 197.058 399.985 212.327C398.485 226.305 384.093 226.807 373.494 226.763C373.568 238.432 374.098 249.038 359.82 250.725C360.015 257.796 359.825 264.923 359.82 272.001C362.941 271.999 390.438 268.849 384.825 277.915C382.681 281.377 373.286 279.966 369.929 279.962L307.312 279.964C303.573 279.965 287.62 281.193 285.084 279.207C282.233 276.975 283.281 272.857 286.728 272.245C289.498 271.753 292.526 271.981 295.337 271.982L308.994 272.001L308.994 250.725C294.968 247.729 294.166 239.622 294.236 226.763C288.619 226.791 282.056 227.891 276.916 225.13C264.424 218.42 267.813 201.841 267.796 190.138C267.785 182.962 267.509 175.672 267.838 168.508C269.072 141.711 286.957 119.25 312.762 111.785ZM317.795 250.725L317.203 250.789C316.397 252.037 316.879 269.345 316.883 272.001L351.737 272.001L352.123 271.757C352.095 264.824 351.717 257.829 351.737 250.725L317.795 250.725Z"/>
	<path fill="#0AEFFA" transform="scale(4.33284 4.33284)" d="M332.455 133.762C353.012 131.873 373.859 148.076 376.767 168.608C377.846 176.225 371.553 180.565 368.006 166.602C364.319 152.094 350.515 141.913 335.694 141.677C297.48 142.132 302.937 175.027 295.448 176.322C285.092 178.112 297.476 152.603 302.892 146.952C310.625 138.884 321.305 134.022 332.455 133.762Z"/>
	<path fill="#0AEFFA" transform="scale(4.33284 4.33284)" d="M334.378 157.607C359.975 158.325 362.104 197.064 334.378 198.47C306.702 196.162 307.305 159.607 334.378 157.607ZM332.455 166.27C317.081 168.64 319.064 191.41 337.213 190.223C352.72 185.915 347.443 162.934 332.455 166.27Z"/>
</svg>
